# xmcd
#
# Track frame offsets:
#	150
#	16155
#	31720
#	50659
#	66504
#	84261
#	99208
#	110237
#	124676
#	141801
#	157262
#	172922
#
# Disc length: 2464 seconds
#
# Revision: 0
# Processed by: cddbd v1.5.2PL0 Copyright (c) Steve Scherf et al.
# Submitted via: EasyCDDAExtractor 15.3.0.1
#
DISCID=99099e0c
DTITLE=Lissette - 12 Boleros - Coleccion De Oro
DYEAR=1999
DGENRE=Latin
TTITLE0=Justo Yo
TTITLE1=Quiereme
TTITLE2=Lo Voy A Dividir
TTITLE3=No Quiero Enamorarme Mas
TTITLE4=Martes 2 De La Tarde
TTITLE5=Usted Abuso
TTITLE6=Falsedad
TTITLE7=Debut Y Despedida
TTITLE8=No Me Dejes No
TTITLE9=El Amor Es Azul
TTITLE10=Acompañame
TTITLE11=Soy
EXTD=
EXTT0=
EXTT1=
EXTT2=
EXTT3=
EXTT4=
EXTT5=
EXTT6=
EXTT7=
EXTT8=
EXTT9=
EXTT10=
EXTT11=
PLAYORDER=
